# xmcd CD database file
#
# Track frame offsets:
#	150
#	20067
#	34839
#	54184
#	74781
#	91593
#	115656
#	133474
#	151378
#	169426
#
# Disc length: 2616 seconds
#
# Revision: 0
# Processed by: cddbd v1.5.2PL0 Copyright (c) Steve Scherf et al.
# Submitted via: CDex 1.70beta2
#
DISCID=8a0a360a
DTITLE=Phil Gammage - Lowlife Street
DYEAR=1900
DGENRE=Blues
TTITLE0=EAsy for you to stay
TTITLE1=Bus depot
TTITLE2=Hard luck dame
TTITLE3=Lowlife street
TTITLE4=Cup of bitterness
TTITLE5=The valley of fear
TTITLE6=Route 65
TTITLE7=I run away
TTITLE8=Evening
TTITLE9=Sunbelt wasteland
EXTD=
EXTT0=
EXTT1=
EXTT2=
EXTT3=
EXTT4=
EXTT5=
EXTT6=
EXTT7=
EXTT8=
EXTT9=
PLAYORDER=
